<?xml version="1.0" standalone="no"?>
<!DOCTYPE svg PUBLIC "-//W3C//DTD SVG 20010904//EN"
 "http://www.w3.org/TR/2001/REC-SVG-20010904/DTD/svg10.dtd">
<svg version="1.0" xmlns="http://www.w3.org/2000/svg"
 width="512.000000pt" height="512.000000pt" viewBox="0 0 512.000000 512.000000"
 preserveAspectRatio="xMidYMid meet">
<metadata>
Created by potrace 1.11, written by Peter Selinger 2001-2013
</metadata>
<g transform="translate(0.000000,512.000000) scale(0.100000,-0.100000)"
fill="#000000" stroke="none">
<path d="M2365 5084 c-16 -2 -73 -9 -125 -15 -883 -100 -1679 -712 -2025
-1557 -77 -188 -127 -376 -167 -627 -17 -107 -17 -543 0 -650 67 -422 190
-751 395 -1062 194 -293 478 -573 773 -758 910 -572 2093 -501 2933 175 124
100 336 319 428 441 269 359 418 720 495 1204 17 107 17 543 0 650 -94 590
-311 1037 -697 1434 -398 410 -889 662 -1460 747 -95 14 -486 27 -550 18z
m545 -219 c313 -47 650 -176 924 -355 546 -357 934 -954 1026 -1579 55 -375
27 -754 -79 -1071 -134 -401 -310 -682 -608 -970 -207 -201 -355 -305 -615
-430 -335 -161 -612 -223 -998 -223 -386 0 -663 62 -998 223 -260 125 -408
229 -615 430 -298 288 -474 569 -608 970 -157 470 -140 1058 43 1527 220 563
622 1004 1153 1263 278 135 508 202 798 230 127 12 450 4 577 -15z"/>
<path d="M1120 4135 c-7 -8 -10 -25 -6 -37 4 -13 34 -129 67 -258 72 -283 106
-384 170 -512 83 -166 152 -264 272 -387 113 -115 241 -198 364 -234 l51 -15
28 41 c40 61 169 191 246 248 37 28 113 74 168 103 l102 53 -49 30 c-26 16
-122 65 -213 107 -150 71 -207 101 -155 82 11 -4 73 -18 138 -32 150 -30 242
-62 320 -112 63 -39 63 -39 108 -25 91 28 248 62 359 78 63 9 125 18 138 21
l23 5 -33 47 c-142 209 -469 435 -768 530 -157 50 -278 69 -665 107 -87 9
-198 24 -245 35 -91 19 -253 76 -332 116 -55 28 -71 30 -88 9z"/>
<path d="M4305 3427 c-220 -105 -418 -151 -880 -202 -477 -53 -689 -103 -901
-211 -319 -162 -523 -446 -658 -914 -77 -263 -106 -479 -106 -780 0 -369 38
-545 113 -526 34 8 38 25 21 88 -37 139 -35 375 6 557 40 180 120 367 203 477
98 129 259 254 432 335 100 47 382 142 396 133 18 -11 -2 -23 -166 -103 -91
-44 -197 -101 -237 -128 -182 -122 -362 -352 -421 -538 -25 -79 -26 -155 -1
-179 22 -23 59 -20 158 14 123 41 240 65 476 95 395 50 542 86 720 175 346
174 615 499 760 917 23 65 75 249 115 408 40 160 78 303 84 318 6 16 11 35 11
43 0 15 -34 54 -48 54 -4 0 -39 -15 -77 -33z"/>
</g>
</svg>
